<?xml version="1.0" encoding="UTF-8"?>
<svg xmlns="http://www.w3.org/2000/svg" xmlns:xlink="http://www.w3.org/1999/xlink" viewBox="0 0 154.19 103.11">
  <defs>
    <style>
      .cls-1, .cls-2, .cls-3, .cls-4, .cls-5, .cls-6 {
        stroke-width: 0px;
      }

      .cls-1, .cls-7 {
        fill: url(#linear-gradient);
      }

      .cls-8 {
        fill: url(#linear-gradient-6);
      }

      .cls-9 {
        clip-path: url(#clippath-2);
      }

      .cls-10 {
        isolation: isolate;
      }

      .cls-2 {
        fill: url(#linear-gradient-2);
      }

      .cls-2, .cls-4, .cls-5 {
        mix-blend-mode: soft-light;
      }

      .cls-11 {
        clip-path: url(#clippath-1);
      }

      .cls-3 {
        fill: url(#linear-gradient-7);
      }

      .cls-12 {
        clip-path: url(#clippath);
      }

      .cls-4 {
        fill: url(#linear-gradient-8);
      }

      .cls-5 {
        fill: url(#linear-gradient-5);
      }

      .cls-13 {
        fill: url(#linear-gradient-3);
      }

      .cls-6 {
        fill: url(#linear-gradient-4);
      }
    </style>
    <linearGradient id="linear-gradient" x1="0" y1="51.56" x2="154.19" y2="51.56" gradientUnits="userSpaceOnUse">
      <stop offset="0" stop-color="#2adeff"/>
      <stop offset=".13" stop-color="#26d3f8"/>
      <stop offset=".37" stop-color="#1eb6e7"/>
      <stop offset=".67" stop-color="#1086cb"/>
      <stop offset="1" stop-color="#004daa"/>
    </linearGradient>
    <clipPath id="clippath">
      <rect class="cls-1" width="154.19" height="103.11" rx="4.66" ry="4.66"/>
    </clipPath>
    <linearGradient id="linear-gradient-2" x1="37.86" y1="124.76" x2="176.18" y2="124.76" xlink:href="#linear-gradient"/>
    <linearGradient id="linear-gradient-3" x1="-169.28" x2="-15.08" xlink:href="#linear-gradient"/>
    <linearGradient id="linear-gradient-4" x1="-169.28" x2="-15.08" xlink:href="#linear-gradient"/>
    <clipPath id="clippath-1">
      <rect class="cls-6" x="-169.28" width="154.19" height="103.11" rx="4.66" ry="4.66"/>
    </clipPath>
    <linearGradient id="linear-gradient-5" x1="-143.28" y1="34.02" x2="18.77" y2="34.02" xlink:href="#linear-gradient"/>
    <linearGradient id="linear-gradient-6" x1="88.64" y1="-186.57" x2=".93" y2="-23.28" xlink:href="#linear-gradient"/>
    <linearGradient id="linear-gradient-7" x1="88.64" y1="-186.57" x2=".93" y2="-23.28" xlink:href="#linear-gradient"/>
    <clipPath id="clippath-2">
      <rect class="cls-3" x="-29.06" y="-145.79" width="140.96" height="94.26" rx="6.35" ry="6.35"/>
    </clipPath>
    <linearGradient id="linear-gradient-8" x1="2625.87" y1="67.61" x2="2536.38" y2="234.2" gradientTransform="translate(2009.3 -1741.93) rotate(135)" xlink:href="#linear-gradient"/>
  </defs>
  <g class="cls-10">
    <g id="Layer_1" data-name="Layer 1">
      <g>
        <rect class="cls-1" width="154.19" height="103.11" rx="4.66" ry="4.66"/>
        <g>
          <rect class="cls-7" width="154.19" height="103.11" rx="4.66" ry="4.66"/>
          <g class="cls-12">
            <path class="cls-2" d="m176.18,182.06h0s-23.82-23.82-23.82-23.82h0c-18.49,18.49-48.46,18.49-66.95,0-18.49-18.49-18.49-48.46,0-66.95,18.49-18.49,48.46-18.49,66.95,0h0s23.82-23.82,23.82-23.82h0c-31.64-31.64-82.95-31.64-114.59,0-31.64,31.64-31.64,82.95,0,114.59,31.64,31.64,82.95,31.64,114.59,0Z"/>
          </g>
        </g>
      </g>
      <g>
        <rect class="cls-13" x="-169.28" width="154.19" height="103.11" rx="4.66" ry="4.66"/>
        <g class="cls-11">
          <path class="cls-5" d="m-62.26-47.01h0V-13.32h0C-36.11-13.32-14.91,7.87-14.91,34.02s-21.2,47.34-47.34,47.34-47.34-21.2-47.34-47.34h0s-33.69,0-33.69,0h0c0,44.75,36.28,81.03,81.03,81.03S18.77,78.77,18.77,34.02-17.51-47.01-62.26-47.01Z"/>
        </g>
      </g>
      <g>
        <rect class="cls-8" x="-29.06" y="-145.79" width="140.96" height="94.26" rx="6.35" ry="6.35"/>
        <g class="cls-9">
          <path class="cls-4" d="m132,20.64h0S110.23-1.14,110.23-1.14h0c-16.9,16.9-44.3,16.9-61.21,0-16.9-16.9-16.9-44.3,0-61.21s44.3-16.9,61.21,0h0s21.77-21.77,21.77-21.77h0c-28.93-28.93-75.83-28.93-104.76,0-28.93,28.93-28.93,75.83,0,104.76,28.93,28.93,75.83,28.93,104.76,0Z"/>
        </g>
      </g>
    </g>
  </g>
</svg>