<?xml version="1.0" encoding="UTF-8"?>
<svg xmlns="http://www.w3.org/2000/svg" xmlns:xlink="http://www.w3.org/1999/xlink" viewBox="0 0 154.19 103.11">
  <defs>
    <style>
      .cls-1 {
        fill: url(#linear-gradient);
      }

      .cls-1, .cls-2, .cls-3 {
        stroke-width: 0px;
      }

      .cls-4 {
        isolation: isolate;
      }

      .cls-2 {
        fill: url(#linear-gradient-2);
        mix-blend-mode: soft-light;
      }

      .cls-3 {
        fill: none;
      }

      .cls-5 {
        clip-path: url(#clippath);
      }
    </style>
    <linearGradient id="linear-gradient" x1="14.13" y1="114.52" x2="140.06" y2="-11.41" gradientUnits="userSpaceOnUse">
      <stop offset="0" stop-color="#006cbf"/>
      <stop offset=".18" stop-color="#0061b5"/>
      <stop offset=".49" stop-color="#00449c"/>
      <stop offset=".9" stop-color="#001574"/>
      <stop offset="1" stop-color="#00096a"/>
    </linearGradient>
    <clipPath id="clippath">
      <rect class="cls-3" width="154.19" height="103.11" rx="4.66" ry="4.66"/>
    </clipPath>
    <linearGradient id="linear-gradient-2" x1="406.58" y1="1135.72" x2="308.69" y2="1317.95" gradientTransform="translate(734.71 -1083.98) rotate(45)" gradientUnits="userSpaceOnUse">
      <stop offset="0" stop-color="#fff" stop-opacity="0"/>
      <stop offset=".16" stop-color="#fff" stop-opacity=".01"/>
      <stop offset=".29" stop-color="#fff" stop-opacity=".05"/>
      <stop offset=".41" stop-color="#fff" stop-opacity=".12"/>
      <stop offset=".52" stop-color="#fff" stop-opacity=".22"/>
      <stop offset=".63" stop-color="#fff" stop-opacity=".34"/>
      <stop offset=".74" stop-color="#fff" stop-opacity=".49"/>
      <stop offset=".84" stop-color="#fff" stop-opacity=".67"/>
      <stop offset=".94" stop-color="#fff" stop-opacity=".87"/>
      <stop offset="1" stop-color="#fff"/>
    </linearGradient>
  </defs>
  <g class="cls-4">
    <g id="Layer_1" data-name="Layer 1">
      <g>
        <rect class="cls-1" width="154.19" height="103.11" rx="4.66" ry="4.66"/>
        <g class="cls-5">
          <path class="cls-2" d="m168.4-23.24h0S144.58.58,144.58.58h0c18.49,18.49,18.49,48.47,0,66.95-18.49,18.49-48.46,18.49-66.95,0s-18.49-48.46,0-66.95h0s-23.82-23.82-23.82-23.82h0c-31.64,31.64-31.64,82.95,0,114.59,31.64,31.64,82.95,31.64,114.59,0,31.64-31.64,31.64-82.95,0-114.59Z"/>
        </g>
      </g>
    </g>
  </g>
</svg>